<svg xmlns="http://www.w3.org/2000/svg" version="1.1" xmlns:xlink="http://www.w3.org/1999/xlink" width="32" height="32"><svg width="32" height="32" viewBox="0 0 32 32" fill="none" xmlns="http://www.w3.org/2000/svg">
<rect width="32" height="32" rx="4" fill="white"></rect>
<path d="M26.87 21.0823H22.5971C23.6814 19.6748 24.3345 17.9159 24.3345 15.9999C24.3345 14.084 23.6793 12.321 22.5929 10.9135H26.868C27.5916 12.4575 28 14.1812 28 15.9999C28 17.8188 27.5936 19.5384 26.87 21.0823ZM15.9979 21.0823C13.1886 21.0823 10.9122 18.8067 10.9122 15.9979C10.9122 13.1891 13.1886 10.9135 15.9979 10.9135C18.8071 10.9135 21.0836 13.1912 21.0836 15.9979C21.0836 18.8047 18.8071 21.0823 15.9979 21.0823ZM7.65722 15.9999C7.65722 20.6049 11.3891 24.3396 15.9958 24.3396C17.2315 24.3396 18.4009 24.0627 19.4561 23.5811V27.4916C18.3615 27.8202 17.2004 28 15.9979 28C9.3718 28 4 22.6283 4 15.9999C4 9.37168 9.3718 4 16 4C17.2024 4 18.3615 4.17981 19.4582 4.50844V8.41887C18.4029 7.9373 17.2336 7.66035 15.9979 7.66035C11.3932 7.66035 7.65929 11.393 7.65929 15.9999H7.65722Z" fill="black"></path>
</svg><style>@media (prefers-color-scheme: light) { :root { filter: none; } }
@media (prefers-color-scheme: dark) { :root { filter: none; } }
</style></svg>